<svg id="Layer_1" data-name="Layer 1" xmlns="http://www.w3.org/2000/svg" viewBox="0 0 180 20"><defs><style>.cls-1{fill:#28abe2;}.cls-2{fill:#fff;}</style></defs><title>uvaproglab</title><rect class="cls-1" width="180" height="20"/><path class="cls-2" d="M10.84,2.06v16h16v-16ZM17,3.53l.67-.66,1.21,1.2,1.21-1.2.67.66L19.51,4.74,20.72,6l-.67.67L18.84,5.41,17.63,6.62,17,6l1.21-1.21ZM17,8l.67-.67,1.21,1.21,1.21-1.21.67.67L19.51,9.19l1.21,1.21-.67.67L18.84,9.86l-1.21,1.21L17,10.4l1.21-1.21Zm3.76,8.61-.67.66-1.21-1.2-1.21,1.2L17,16.59l1.21-1.21L17,14.17l.67-.67,1.21,1.21,1.21-1.21.67.67-1.21,1.21Zm.46-3.45V11.69l-.65.61a2.72,2.72,0,0,1-1.25.62,4.33,4.33,0,0,1-1.91.1,4.21,4.21,0,0,1-1-.29,2.08,2.08,0,0,1-1-.85,2.92,2.92,0,0,1-.21-1.14V9.22l-.11-2.58.65,0a4.46,4.46,0,0,1,.62,0c0,.08,0,3.58,0,3.58a4,4,0,0,0,.22,1.13c.33.67,1.76.72,1.76.72a3.82,3.82,0,0,0,.72,0c.5,0,1.47-.18,1.79-.77,0,0,.22-.25.3-1.66a18.42,18.42,0,0,0-.11-2.95l1.39-.07s-.1,1.05-.1,3a22.51,22.51,0,0,0,.18,3.12Z"/><path class="cls-2" d="M45.15,9.22l-.95.95a1.08,1.08,0,0,1-.77.33H39v4.55H37.57V4.31h5.84a1.06,1.06,0,0,1,.78.32l1,1a1.14,1.14,0,0,1,.35.81v2A1.11,1.11,0,0,1,45.15,9.22ZM44,6.58a.29.29,0,0,0-.1-.22l-.53-.54a.32.32,0,0,0-.23-.09H39V9.08h4.13a.26.26,0,0,0,.22-.1l.53-.53a.29.29,0,0,0,.1-.23Z"/><path class="cls-2" d="M52.23,10.45V9.29a.37.37,0,0,0-.1-.23l-.39-.37a.33.33,0,0,0-.22-.11h-1a.5.5,0,0,0-.24.09L49,10a.29.29,0,0,0-.1.23v4.81H47.47V8.72l-.32-1.33h1.34l.27,1.19.86-.86a1.11,1.11,0,0,1,.8-.33h1.27a1,1,0,0,1,.79.32l.71.71a1.11,1.11,0,0,1,.36.82v1.19Z"/><path class="cls-2" d="M61.57,14l-.71.71a1,1,0,0,1-.79.32H56.86a1,1,0,0,1-.78-.32L55.37,14A1.09,1.09,0,0,1,55,13.2v-4a1.09,1.09,0,0,1,.34-.82l.71-.71a1,1,0,0,1,.78-.32h3.19a1,1,0,0,1,.79.32l.71.71a1.11,1.11,0,0,1,.36.82v3.93A1.2,1.2,0,0,1,61.57,14Zm-1-4.73a.32.32,0,0,0-.09-.23l-.33-.32a.28.28,0,0,0-.22-.1H57.06a.29.29,0,0,0-.23.1l-.32.32a.34.34,0,0,0-.11.23v3.86a.43.43,0,0,0,.09.23l.33.32a.32.32,0,0,0,.22.1h2.84a.28.28,0,0,0,.22-.1l.33-.32a.4.4,0,0,0,.09-.27Z"/><path class="cls-2" d="M70.82,8.66v7.6a1.12,1.12,0,0,1-.34.82l-.71.71a1.06,1.06,0,0,1-.79.34H65.77a1.1,1.1,0,0,1-.79-.32l-1-1,.87-.88.82.82a.26.26,0,0,0,.22.11h2.86a.37.37,0,0,0,.22-.1l.32-.32a.28.28,0,0,0,.1-.22V13.94l-.77.78a1.12,1.12,0,0,1-.79.33h-2.1a1.06,1.06,0,0,1-.79-.32L64.27,14a1.12,1.12,0,0,1-.33-.82V9.25a1.15,1.15,0,0,1,.33-.83L65,7.71a1.06,1.06,0,0,1,.79-.32h2.08a1.17,1.17,0,0,1,.81.32l.85.85.26-1.17h1.3Zm-1.39,1.58a.32.32,0,0,0-.1-.23L68.06,8.74a.28.28,0,0,0-.22-.1H66a.29.29,0,0,0-.23.1l-.32.32a.36.36,0,0,0-.11.26v3.83a.36.36,0,0,0,.09.23l.32.32a.36.36,0,0,0,.23.1h1.87a.3.3,0,0,0,.24-.1l1.27-1.27a.29.29,0,0,0,.1-.23Z"/><path class="cls-2" d="M78.5,10.45V9.29a.37.37,0,0,0-.1-.23L78,8.69a.38.38,0,0,0-.23-.11h-1a.5.5,0,0,0-.24.09L75.23,10a.29.29,0,0,0-.1.23v4.81H73.75V8.72l-.33-1.33h1.34L75,8.58l.85-.86a1.13,1.13,0,0,1,.8-.33H78a1,1,0,0,1,.79.32l.71.71a1.14,1.14,0,0,1,.35.82v1.19Z"/><path class="cls-2" d="M88.08,15.05l-.85-.85-.53.53a1.12,1.12,0,0,1-.79.32H83.24a1,1,0,0,1-.79-.32L81.74,14a1.09,1.09,0,0,1-.34-.82V12a1.12,1.12,0,0,1,.34-.83l.63-.62a1.07,1.07,0,0,1,.8-.34h3.72V9.29a.35.35,0,0,0-.09-.23l-.33-.32a.28.28,0,0,0-.22-.1h-2.9a.26.26,0,0,0-.23.1l-.59.6-.86-.86.78-.77a1,1,0,0,1,.79-.32h3.19a1,1,0,0,1,.78.32l.71.71a1.11,1.11,0,0,1,.34.82v4.07a.35.35,0,0,0,.1.23l.63.61Zm-1.19-3.7H83.43a.33.33,0,0,0-.23.1l-.32.32a.33.33,0,0,0-.11.22v1.16a.43.43,0,0,0,.09.23l.33.32a.32.32,0,0,0,.22.1h2.31a.27.27,0,0,0,.22-.1l.86-.84a.31.31,0,0,0,.09-.24Z"/><path class="cls-2" d="M99.81,15.05V9.29a.32.32,0,0,0-.09-.23l-.38-.37a.38.38,0,0,0-.22-.11h-.68a.4.4,0,0,0-.22.09L96.88,10a.33.33,0,0,0-.1.23v4.81H95.41V9.29a.36.36,0,0,0-.09-.23l-.39-.37a.33.33,0,0,0-.22-.11H94a.54.54,0,0,0-.24.09L92.48,10a.33.33,0,0,0-.1.23v4.81H91V8.72l-.32-1.33H92l.28,1.19.85-.86A1.13,1.13,0,0,1,94,7.39h1a1.06,1.06,0,0,1,.79.32l.91.92.91-.91a1.11,1.11,0,0,1,.79-.33h1a1,1,0,0,1,.79.32l.71.71a1.11,1.11,0,0,1,.36.82v5.81Z"/><path class="cls-2" d="M112.78,15.05V9.29a.29.29,0,0,0-.1-.23l-.37-.37a.38.38,0,0,0-.22-.11h-.68a.43.43,0,0,0-.23.09L109.85,10a.29.29,0,0,0-.1.23v4.81h-1.37V9.29a.37.37,0,0,0-.1-.23l-.38-.37a.38.38,0,0,0-.23-.11H107a.5.5,0,0,0-.24.09L105.45,10a.29.29,0,0,0-.1.23v4.81H104V8.72l-.32-1.33H105l.28,1.19.85-.86a1.13,1.13,0,0,1,.81-.33h1a1,1,0,0,1,.79.32l.92.92.9-.91a1.12,1.12,0,0,1,.79-.33h1a1,1,0,0,1,.79.32l.71.71a1.11,1.11,0,0,1,.36.82v5.81Z"/><path class="cls-2" d="M117.39,15.05V8.64h-1.65V7.39h3v7.66Zm-.2-9.21V4.13h1.73V5.84Z"/><path class="cls-2" d="M126.84,15.05V9.29a.32.32,0,0,0-.09-.23l-.37-.37a.44.44,0,0,0-.23-.11H124.8a.58.58,0,0,0-.25.09L123.23,10a.32.32,0,0,0-.09.23v4.81h-1.39V8.72l-.32-1.33h1.34L123,8.58l.85-.86a1.13,1.13,0,0,1,.81-.33h1.68a1,1,0,0,1,.78.32l.71.71a1.11,1.11,0,0,1,.36.82v5.81Z"/><path class="cls-2" d="M137.59,8.66v7.6a1.12,1.12,0,0,1-.34.82l-.71.71a1.06,1.06,0,0,1-.79.34h-3.21a1.1,1.1,0,0,1-.79-.32l-1-1,.87-.88.82.82a.28.28,0,0,0,.23.11h2.85a.37.37,0,0,0,.22-.1l.32-.32a.28.28,0,0,0,.1-.22V13.94l-.77.78a1.12,1.12,0,0,1-.79.33h-2.1a1.06,1.06,0,0,1-.79-.32l-.7-.71a1.09,1.09,0,0,1-.34-.82V9.25a1.12,1.12,0,0,1,.34-.83l.7-.71a1.06,1.06,0,0,1,.79-.32h2.08a1.17,1.17,0,0,1,.81.32l.85.85.26-1.17h1.3Zm-1.39,1.58a.32.32,0,0,0-.1-.23l-1.27-1.27a.28.28,0,0,0-.22-.1h-1.87a.29.29,0,0,0-.23.1l-.32.32a.41.41,0,0,0-.11.26v3.83a.43.43,0,0,0,.09.23l.33.32a.32.32,0,0,0,.22.1h1.87a.3.3,0,0,0,.24-.1l1.27-1.27a.29.29,0,0,0,.1-.23Z"/><path class="cls-2" d="M145.87,15.05V4.31h1.46v9.33h5.48v1.41Z"/><path class="cls-2" d="M160.67,15.05l-.85-.85-.53.53a1.14,1.14,0,0,1-.79.32h-2.68a1.06,1.06,0,0,1-.79-.32l-.71-.71a1.12,1.12,0,0,1-.33-.82V12a1.15,1.15,0,0,1,.33-.83l.63-.62a1.1,1.1,0,0,1,.81-.34h3.72V9.29a.32.32,0,0,0-.1-.23l-.32-.32a.3.3,0,0,0-.23-.1h-2.9a.26.26,0,0,0-.22.1l-.6.6-.85-.86.77-.77a1,1,0,0,1,.79-.32H159a1.07,1.07,0,0,1,.79.32l.71.71a1.11,1.11,0,0,1,.34.82v4.07a.4.4,0,0,0,.09.23l.63.61Zm-1.19-3.7H156a.32.32,0,0,0-.22.1l-.32.32a.31.31,0,0,0-.12.22v1.16a.37.37,0,0,0,.1.23l.32.32a.34.34,0,0,0,.23.1h2.3a.29.29,0,0,0,.23-.1l.85-.84a.28.28,0,0,0,.1-.24Z"/><path class="cls-2" d="M170.13,14l-.71.71a1.06,1.06,0,0,1-.79.32h-2.1a1.1,1.1,0,0,1-.79-.32l-.85-.85-.27,1.17h-1.29l.26-1.27V4.31H165V8.5l.77-.78a1.11,1.11,0,0,1,.8-.33h2.08a1,1,0,0,1,.79.32l.71.71a1.11,1.11,0,0,1,.36.82v3.95A1.16,1.16,0,0,1,170.13,14Zm-1-4.73a.29.29,0,0,0-.1-.23l-.32-.32a.28.28,0,0,0-.22-.1h-1.87a.29.29,0,0,0-.23.1L165.07,10a.3.3,0,0,0-.11.23v2a.41.41,0,0,0,.09.23l1.27,1.27a.36.36,0,0,0,.25.1h1.87a.28.28,0,0,0,.22-.1l.32-.32a.36.36,0,0,0,.1-.27Z"/></svg>