<?xml version="1.0" encoding="UTF-8" standalone="no"?>
<!DOCTYPE svg PUBLIC "-//W3C//DTD SVG 1.1//EN" "http://www.w3.org/Graphics/SVG/1.1/DTD/svg11.dtd">
<svg width="100%" height="100%" viewBox="0 0 160 17" version="1.1" xmlns="http://www.w3.org/2000/svg" xmlns:xlink="http://www.w3.org/1999/xlink" xml:space="preserve" xmlns:serif="http://www.serif.com/" style="fill-rule:evenodd;clip-rule:evenodd;stroke-linejoin:round;stroke-miterlimit:2;">
    <g transform="matrix(1,0,0,1,0,-1.96172)">
        <g id="Artboard3" transform="matrix(1,0,0,1,219.16,-0.10188)">
            <rect x="-219.16" y="2.064" width="159.625" height="16.068" style="fill:none;"/>
            <clipPath id="_clip1">
                <rect x="-219.16" y="2.064" width="159.625" height="16.068"/>
            </clipPath>
            <g clip-path="url(#_clip1)">
                <g id="Layer-1" serif:id="Layer 1" transform="matrix(1,0,0,1,-229.16,0.0636)">
                    <g transform="matrix(1,0,0,1,20.4211,7.03024)">
                        <path d="M0,6.16L0.002,4.703L-0.654,5.32C-0.654,5.32 -1.037,5.712 -1.902,5.935C-2.766,6.156 -3.423,6.116 -3.815,6.037C-4.209,5.958 -4.563,5.853 -4.786,5.747C-5.009,5.642 -5.402,5.445 -5.755,4.893C-5.964,4.568 -5.964,3.752 -5.964,3.752L-5.948,2.232L-6.064,-0.34C-6.064,-0.34 -5.674,-0.322 -5.408,-0.321C-5.082,-0.319 -4.799,-0.393 -4.791,-0.35C-4.778,-0.271 -4.77,3.23 -4.77,3.23C-4.77,3.23 -4.731,3.977 -4.548,4.358C-4.226,5.026 -2.792,5.081 -2.792,5.081C-2.792,5.081 -2.569,5.108 -2.07,5.069C-1.573,5.031 -0.601,4.887 -0.286,4.297C-0.286,4.297 -0.063,4.049 0.018,2.633C0.102,1.15 -0.097,-0.318 -0.097,-0.318L1.293,-0.382C1.293,-0.382 1.199,0.666 1.197,2.634C1.195,4.6 1.377,5.755 1.377,5.755L0,6.16ZM-0.466,9.602L-1.135,10.271L-2.343,9.063L-3.551,10.271L-4.22,9.602L-3.012,8.394L-4.22,7.186L-3.551,6.517L-2.343,7.725L-1.135,6.517L-0.466,7.186L-1.674,8.394L-0.466,9.602ZM-4.22,0.997L-3.551,0.328L-2.343,1.536L-1.135,0.328L-0.466,0.997L-1.674,2.205L-0.466,3.414L-1.135,4.082L-2.343,2.874L-3.551,4.082L-4.22,3.414L-3.012,2.205L-4.22,0.997ZM-4.22,-3.449L-3.551,-4.118L-2.343,-2.91L-1.135,-4.118L-0.466,-3.449L-1.674,-2.241L-0.466,-1.033L-1.135,-0.364L-2.343,-1.572L-3.551,-0.364L-4.22,-1.033L-3.012,-2.241L-4.22,-3.449ZM-10.343,11.08L5.657,11.08L5.657,-4.92L-10.343,-4.92L-10.343,11.08Z" style="fill:white;fill-rule:nonzero;"/>
                    </g>
                    <g transform="matrix(1,0,0,1,43.2649,12.8302)">
                        <path d="M0,-6.203C0,-6.3 -0.048,-6.38 -0.097,-6.429L-0.628,-6.96C-0.693,-7.025 -0.757,-7.057 -0.854,-7.057L-4.994,-7.057L-4.994,-3.706L-0.87,-3.706C-0.773,-3.706 -0.693,-3.738 -0.645,-3.803L-0.113,-4.334C-0.048,-4.399 -0.016,-4.463 -0.016,-4.56L0,-6.203ZM1.128,-3.561L0.177,-2.61C-0.032,-2.401 -0.306,-2.288 -0.596,-2.288L-4.994,-2.288L-4.994,2.271L-6.46,2.271L-6.46,-8.474L-0.612,-8.474C-0.306,-8.474 -0.048,-8.362 0.161,-8.152L1.112,-7.202C1.337,-6.976 1.466,-6.719 1.466,-6.396L1.466,-4.367C1.466,-4.044 1.337,-3.77 1.128,-3.561" style="fill:white;fill-rule:nonzero;"/>
                    </g>
                    <g transform="matrix(1,0,0,1,51.4641,12.0399)">
                        <path d="M0,-1.546L0,-2.706C0,-2.803 -0.048,-2.867 -0.097,-2.932L-0.483,-3.302C-0.548,-3.367 -0.628,-3.415 -0.709,-3.415L-1.708,-3.415C-1.788,-3.415 -1.885,-3.367 -1.949,-3.318L-3.271,-1.981C-3.335,-1.917 -3.367,-1.852 -3.367,-1.755L-3.367,3.061L-4.752,3.061L-4.752,-3.27L-5.075,-4.607L-3.737,-4.607L-3.463,-3.415L-2.61,-4.269C-2.384,-4.494 -2.11,-4.607 -1.804,-4.607L-0.532,-4.607C-0.209,-4.607 0.048,-4.51 0.258,-4.285L0.967,-3.576C1.192,-3.351 1.321,-3.077 1.321,-2.754L1.321,-1.562L0,-1.546Z" style="fill:white;fill-rule:nonzero;"/>
                    </g>
                    <g transform="matrix(1,0,0,1,59.7605,13.2007)">
                        <path d="M0,-3.867C0,-3.964 -0.032,-4.028 -0.097,-4.093L-0.419,-4.415C-0.483,-4.479 -0.564,-4.512 -0.645,-4.512L-3.464,-4.512C-3.544,-4.512 -3.641,-4.479 -3.689,-4.415L-4.012,-4.093C-4.076,-4.028 -4.125,-3.964 -4.125,-3.867L-4.125,-0.001C-4.125,0.096 -4.076,0.161 -4.028,0.225L-3.706,0.547C-3.641,0.612 -3.544,0.644 -3.48,0.644L-0.645,0.644C-0.564,0.644 -0.483,0.612 -0.419,0.547L-0.097,0.225C-0.032,0.161 0,0.064 0,-0.049L0,-3.867ZM1.047,0.869L0.338,1.578C0.113,1.804 -0.145,1.901 -0.451,1.901L-3.657,1.901C-3.963,1.901 -4.221,1.804 -4.447,1.578L-5.155,0.869C-5.381,0.644 -5.494,0.37 -5.494,0.048L-5.494,-3.915C-5.494,-4.238 -5.381,-4.512 -5.155,-4.737L-4.447,-5.446C-4.221,-5.671 -3.963,-5.768 -3.657,-5.768L-0.467,-5.768C-0.145,-5.768 0.113,-5.671 0.322,-5.446L1.031,-4.737C1.256,-4.512 1.385,-4.238 1.385,-3.915L1.385,0.016C1.385,0.338 1.272,0.644 1.047,0.869" style="fill:white;fill-rule:nonzero;"/>
                    </g>
                    <g transform="matrix(1,0,0,1,68.6687,15.3264)">
                        <path d="M0,-5.042C0,-5.123 -0.032,-5.203 -0.097,-5.268L-1.37,-6.541C-1.434,-6.605 -1.515,-6.637 -1.595,-6.637L-3.464,-6.637C-3.544,-6.637 -3.641,-6.605 -3.689,-6.541L-4.012,-6.218C-4.076,-6.154 -4.125,-6.057 -4.125,-5.96L-4.125,-2.126C-4.125,-2.029 -4.076,-1.965 -4.028,-1.901L-3.706,-1.579C-3.641,-1.514 -3.544,-1.482 -3.48,-1.482L-1.611,-1.482C-1.515,-1.482 -1.434,-1.514 -1.37,-1.579L-0.097,-2.851C-0.032,-2.916 0,-2.98 0,-3.077L0,-5.042ZM1.385,-6.621L1.385,0.983C1.385,1.305 1.256,1.595 1.047,1.805L0.338,2.514C0.113,2.739 -0.145,2.852 -0.451,2.852L-3.657,2.852C-3.979,2.852 -4.221,2.739 -4.447,2.53L-5.413,1.563L-4.543,0.677L-3.722,1.499C-3.657,1.579 -3.577,1.611 -3.496,1.611L-0.645,1.611C-0.564,1.611 -0.483,1.563 -0.419,1.515L-0.097,1.192C-0.032,1.128 0,1.047 0,0.967L0,-1.337L-0.773,-0.563C-0.999,-0.338 -1.273,-0.225 -1.563,-0.225L-3.657,-0.225C-3.963,-0.225 -4.221,-0.322 -4.447,-0.547L-5.155,-1.256C-5.381,-1.482 -5.494,-1.756 -5.494,-2.078L-5.494,-6.025C-5.494,-6.347 -5.381,-6.637 -5.155,-6.863L-4.447,-7.571C-4.221,-7.797 -3.963,-7.894 -3.657,-7.894L-1.579,-7.894C-1.273,-7.894 -0.999,-7.781 -0.773,-7.571L0.081,-6.718L0.338,-7.894L1.643,-7.894L1.385,-6.621Z" style="fill:white;fill-rule:nonzero;"/>
                    </g>
                    <g transform="matrix(1,0,0,1,77.738,12.0399)">
                        <path d="M0,-1.546L0,-2.706C0,-2.803 -0.048,-2.867 -0.097,-2.932L-0.483,-3.302C-0.548,-3.367 -0.628,-3.415 -0.709,-3.415L-1.708,-3.415C-1.789,-3.415 -1.885,-3.367 -1.95,-3.318L-3.271,-1.981C-3.335,-1.917 -3.367,-1.852 -3.367,-1.755L-3.367,3.061L-4.752,3.061L-4.752,-3.27L-5.075,-4.607L-3.738,-4.607L-3.464,-3.415L-2.61,-4.269C-2.384,-4.494 -2.111,-4.607 -1.805,-4.607L-0.532,-4.607C-0.209,-4.607 0.048,-4.51 0.258,-4.285L0.966,-3.576C1.192,-3.351 1.321,-3.077 1.321,-2.754L1.321,-1.562L0,-1.546Z" style="fill:white;fill-rule:nonzero;"/>
                    </g>
                    <g transform="matrix(1,0,0,1,86.1306,11.1387)">
                        <path d="M0,0.257L-3.464,0.257C-3.56,0.257 -3.641,0.305 -3.689,0.354L-4.011,0.676C-4.076,0.74 -4.124,0.821 -4.124,0.902L-4.124,2.061C-4.124,2.158 -4.076,2.223 -4.027,2.287L-3.705,2.609C-3.641,2.674 -3.544,2.706 -3.479,2.706L-1.176,2.706C-1.095,2.706 -0.999,2.674 -0.95,2.609L-0.097,1.772C-0.032,1.707 0,1.643 0,1.53L0,0.257ZM1.192,3.963L0.338,3.109L-0.193,3.64C-0.419,3.85 -0.676,3.963 -0.982,3.963L-3.657,3.963C-3.963,3.963 -4.221,3.866 -4.446,3.64L-5.155,2.931C-5.381,2.706 -5.494,2.432 -5.494,2.11L-5.494,0.853C-5.494,0.531 -5.381,0.257 -5.155,0.031L-4.527,-0.597C-4.301,-0.822 -4.027,-0.935 -3.721,-0.935L0,-0.935L0,-1.805C0,-1.886 -0.032,-1.966 -0.097,-2.031L-0.419,-2.353C-0.483,-2.417 -0.563,-2.45 -0.644,-2.45L-3.544,-2.45C-3.641,-2.45 -3.721,-2.417 -3.77,-2.353L-4.366,-1.757L-5.22,-2.61L-4.446,-3.384C-4.221,-3.609 -3.979,-3.706 -3.657,-3.706L-0.467,-3.706C-0.145,-3.706 0.113,-3.593 0.322,-3.384L1.031,-2.675C1.257,-2.45 1.37,-2.16 1.37,-1.853L1.37,2.223C1.37,2.319 1.418,2.383 1.466,2.448L2.094,3.06L1.192,3.963Z" style="fill:white;fill-rule:nonzero;"/>
                    </g>
                    <g transform="matrix(1,0,0,1,99.0505,7.43334)">
                        <path d="M0,7.668L0,1.9C0,1.804 -0.032,1.739 -0.097,1.675L-0.467,1.304C-0.532,1.24 -0.628,1.191 -0.693,1.191L-1.37,1.191C-1.45,1.191 -1.546,1.24 -1.595,1.288L-2.932,2.626C-2.997,2.69 -3.029,2.754 -3.029,2.851L-3.029,7.668L-4.398,7.668L-4.398,1.9C-4.398,1.804 -4.446,1.739 -4.495,1.675L-4.882,1.304C-4.946,1.24 -5.026,1.191 -5.107,1.191L-5.768,1.191C-5.848,1.191 -5.945,1.24 -6.009,1.288L-7.331,2.626C-7.395,2.69 -7.427,2.754 -7.427,2.851L-7.427,7.668L-8.813,7.668L-8.813,1.336L-9.135,0L-7.797,0L-7.523,1.191L-6.67,0.338C-6.444,0.112 -6.17,0 -5.864,0L-4.865,0C-4.56,0 -4.301,0.096 -4.076,0.322L-3.158,1.24L-2.255,0.338C-2.03,0.112 -1.756,0 -1.466,0L-0.467,0C-0.145,0 0.113,0.096 0.322,0.322L1.031,1.03C1.256,1.256 1.385,1.53 1.385,1.852L1.385,7.668L0,7.668Z" style="fill:white;fill-rule:nonzero;"/>
                    </g>
                    <g transform="matrix(1,0,0,1,112.018,7.43334)">
                        <path d="M0,7.668L0,1.9C0,1.804 -0.032,1.739 -0.097,1.675L-0.467,1.304C-0.532,1.24 -0.628,1.191 -0.693,1.191L-1.37,1.191C-1.45,1.191 -1.547,1.24 -1.595,1.288L-2.932,2.626C-2.997,2.69 -3.029,2.754 -3.029,2.851L-3.029,7.668L-4.398,7.668L-4.398,1.9C-4.398,1.804 -4.447,1.739 -4.495,1.675L-4.882,1.304C-4.946,1.24 -5.027,1.191 -5.107,1.191L-5.768,1.191C-5.848,1.191 -5.945,1.24 -6.009,1.288L-7.331,2.626C-7.395,2.69 -7.427,2.754 -7.427,2.851L-7.427,7.668L-8.813,7.668L-8.813,1.336L-9.135,0L-7.798,0L-7.524,1.191L-6.67,0.338C-6.444,0.112 -6.17,0 -5.864,0L-4.866,0C-4.56,0 -4.302,0.096 -4.076,0.322L-3.158,1.24L-2.256,0.338C-2.03,0.112 -1.756,0 -1.466,0L-0.467,0C-0.145,0 0.113,0.096 0.322,0.322L1.031,1.03C1.256,1.256 1.385,1.53 1.385,1.852L1.385,7.668L0,7.668Z" style="fill:white;fill-rule:nonzero;"/>
                    </g>
                    <g transform="matrix(1,0,0,1,-0.761518,-0.76636)">
                        <path d="M117.192,4.945L118.916,4.945L118.916,6.653L117.192,6.653L117.192,4.945ZM117.386,15.868L117.386,9.456L115.743,9.456L115.743,8.199L118.755,8.199L118.755,15.868L117.386,15.868Z" style="fill:white;fill-rule:nonzero;"/>
                    </g>
                    <g transform="matrix(1,0,0,1,126.081,7.43334)">
                        <path d="M0,7.668L0,1.9C0,1.804 -0.032,1.739 -0.097,1.675L-0.467,1.304C-0.532,1.24 -0.628,1.191 -0.693,1.191L-2.046,1.191C-2.127,1.191 -2.224,1.24 -2.288,1.288L-3.609,2.626C-3.673,2.69 -3.706,2.754 -3.706,2.851L-3.706,7.668L-5.091,7.668L-5.091,1.336L-5.413,0L-4.076,0L-3.802,1.191L-2.948,0.338C-2.723,0.112 -2.449,0 -2.143,0L-0.467,0C-0.145,0 0.113,0.096 0.322,0.322L1.031,1.03C1.256,1.256 1.385,1.53 1.385,1.852L1.385,7.668L0,7.668Z" style="fill:white;fill-rule:nonzero;"/>
                    </g>
                    <g transform="matrix(1,0,0,1,135.44,15.3264)">
                        <path d="M0,-5.042C0,-5.123 -0.032,-5.203 -0.097,-5.268L-1.37,-6.541C-1.434,-6.605 -1.515,-6.637 -1.595,-6.637L-3.464,-6.637C-3.544,-6.637 -3.641,-6.605 -3.689,-6.541L-4.012,-6.218C-4.076,-6.154 -4.125,-6.057 -4.125,-5.96L-4.125,-2.126C-4.125,-2.029 -4.076,-1.965 -4.028,-1.901L-3.706,-1.579C-3.641,-1.514 -3.544,-1.482 -3.48,-1.482L-1.611,-1.482C-1.515,-1.482 -1.434,-1.514 -1.37,-1.579L-0.097,-2.851C-0.032,-2.916 0,-2.98 0,-3.077L0,-5.042ZM1.385,-6.621L1.385,0.983C1.385,1.305 1.256,1.595 1.047,1.805L0.338,2.514C0.113,2.739 -0.145,2.852 -0.451,2.852L-3.657,2.852C-3.979,2.852 -4.221,2.739 -4.447,2.53L-5.413,1.563L-4.543,0.677L-3.722,1.499C-3.657,1.579 -3.577,1.611 -3.496,1.611L-0.645,1.611C-0.564,1.611 -0.483,1.563 -0.419,1.515L-0.097,1.192C-0.032,1.128 0,1.047 0,0.967L0,-1.337L-0.773,-0.563C-0.999,-0.338 -1.273,-0.225 -1.563,-0.225L-3.657,-0.225C-3.963,-0.225 -4.221,-0.322 -4.447,-0.547L-5.156,-1.256C-5.381,-1.482 -5.494,-1.756 -5.494,-2.078L-5.494,-6.025C-5.494,-6.347 -5.381,-6.637 -5.156,-6.863L-4.447,-7.571C-4.221,-7.797 -3.963,-7.894 -3.657,-7.894L-1.579,-7.894C-1.273,-7.894 -0.999,-7.781 -0.773,-7.571L0.081,-6.718L0.338,-7.894L1.643,-7.894L1.385,-6.621Z" style="fill:white;fill-rule:nonzero;"/>
                    </g>
                    <g transform="matrix(1,0,0,1,145.105,4.35534)">
                        <path d="M0,10.746L0,0L1.466,0L1.466,9.328L6.943,9.328L6.943,10.746L0,10.746Z" style="fill:white;fill-rule:nonzero;"/>
                    </g>
                    <g transform="matrix(1,0,0,1,158.717,11.1387)">
                        <path d="M0,0.257L-3.464,0.257C-3.561,0.257 -3.641,0.305 -3.689,0.354L-4.012,0.676C-4.076,0.74 -4.124,0.821 -4.124,0.902L-4.124,2.061C-4.124,2.158 -4.076,2.223 -4.027,2.287L-3.705,2.609C-3.641,2.674 -3.544,2.706 -3.479,2.706L-1.176,2.706C-1.096,2.706 -0.999,2.674 -0.95,2.609L-0.097,1.772C-0.032,1.707 0,1.643 0,1.53L0,0.257ZM1.192,3.963L0.339,3.109L-0.193,3.64C-0.419,3.85 -0.677,3.963 -0.982,3.963L-3.657,3.963C-3.963,3.963 -4.221,3.866 -4.446,3.64L-5.155,2.931C-5.381,2.706 -5.493,2.432 -5.493,2.11L-5.493,0.853C-5.493,0.531 -5.381,0.257 -5.155,0.031L-4.527,-0.597C-4.302,-0.822 -4.027,-0.935 -3.722,-0.935L0,-0.935L0,-1.805C0,-1.886 -0.032,-1.966 -0.097,-2.031L-0.419,-2.353C-0.483,-2.417 -0.563,-2.45 -0.645,-2.45L-3.544,-2.45C-3.641,-2.45 -3.722,-2.417 -3.77,-2.353L-4.365,-1.757L-5.22,-2.61L-4.446,-3.384C-4.221,-3.609 -3.979,-3.706 -3.657,-3.706L-0.467,-3.706C-0.145,-3.706 0.113,-3.593 0.322,-3.384L1.031,-2.675C1.257,-2.45 1.369,-2.16 1.369,-1.853L1.369,2.223C1.369,2.319 1.418,2.383 1.466,2.448L2.095,3.06L1.192,3.963Z" style="fill:white;fill-rule:nonzero;"/>
                    </g>
                    <g transform="matrix(1,0,0,1,168.319,10.1237)">
                        <path d="M0,-0.79C0,-0.887 -0.033,-0.951 -0.097,-1.016L-0.419,-1.338C-0.484,-1.402 -0.564,-1.435 -0.645,-1.435L-2.514,-1.435C-2.595,-1.435 -2.691,-1.402 -2.739,-1.338L-4.012,-0.065C-4.076,0 -4.125,0.064 -4.125,0.161L-4.125,2.126C-4.125,2.207 -4.076,2.287 -4.028,2.352L-2.756,3.624C-2.691,3.689 -2.595,3.721 -2.514,3.721L-0.645,3.721C-0.564,3.721 -0.484,3.689 -0.419,3.624L-0.097,3.302C-0.033,3.238 0,3.141 0,3.028L0,-0.79ZM1.047,3.946L0.338,4.655C0.112,4.881 -0.146,4.978 -0.451,4.978L-2.546,4.978C-2.852,4.978 -3.126,4.865 -3.335,4.655L-4.189,3.801L-4.463,4.978L-5.752,4.978L-5.494,3.705L-5.494,-5.768L-4.125,-5.768L-4.125,-1.58L-3.352,-2.352C-3.126,-2.578 -2.852,-2.691 -2.546,-2.691L-0.468,-2.691C-0.162,-2.691 0.112,-2.594 0.322,-2.369L1.03,-1.66C1.256,-1.435 1.385,-1.161 1.385,-0.838L1.385,3.109C1.385,3.431 1.272,3.721 1.047,3.946" style="fill:white;fill-rule:nonzero;"/>
                    </g>
                </g>
            </g>
        </g>
    </g>
</svg>
