<svg id="laptop-tools" enable-background="new 0 0 300 300" height="512" viewBox="0 0 300 300" width="512" xmlns="http://www.w3.org/2000/svg"><g><circle cx="111.174" cy="120" fill="#ffc7c7" r="86"/><g><path d="m245.174 238h-120" fill="#9dc1e4"/><path d="m245.174 242h-120c-2.211 0-4-1.789-4-4s1.789-4 4-4h120c2.211 0 4 1.789 4 4s-1.789 4-4 4z" fill="#4c241d"/></g><g><path d="m245.623 110h-188.898c-6.38 0-11.551 4.745-11.551 10.599v117.401h212v-117.401c0-5.854-5.171-10.599-11.551-10.599z" fill="#9dc1e4"/><path d="m257.174 242h-212c-2.211 0-4-1.789-4-4v-117.402c0-8.051 6.977-14.598 15.551-14.598h188.898c8.574 0 15.551 6.547 15.551 14.598v117.402c0 2.211-1.789 4-4 4zm-208-8h204v-113.402c0-3.637-3.387-6.598-7.551-6.598h-188.898c-4.164 0-7.551 2.961-7.551 6.598z" fill="#4c241d"/></g><g><path d="m29.174 238v13.732c0 5.671 4.597 10.268 10.268 10.268h223.465c5.671 0 10.268-4.597 10.268-10.268v-13.732z" fill="#b5a19c"/><path d="m262.905 266h-223.461c-7.867 0-14.27-6.402-14.27-14.27v-13.73c0-2.211 1.789-4 4-4h244c2.211 0 4 1.789 4 4v13.73c0 7.868-6.402 14.27-14.269 14.27zm-229.731-24v9.73c0 3.457 2.812 6.27 6.27 6.27h223.461c3.457 0 6.27-2.812 6.27-6.27v-9.73z" fill="#4c241d"/></g><circle cx="27.355" cy="67.975" fill="#4c241d" r="4.529"/><g><path d="m189.174 70h-100c-4.418 0-8 3.582-8 8v160h140v-136z" fill="#fff"/><path d="m221.174 242h-140c-2.211 0-4-1.789-4-4v-160c0-6.617 5.383-12 12-12h100c1.062 0 2.078.422 2.828 1.172l32 32c.75.75 1.172 1.766 1.172 2.828v136c0 2.211-1.789 4-4 4zm-136-8h132v-130.344l-29.656-29.656h-98.344c-2.207 0-4 1.793-4 4z" fill="#4c241d"/></g><g><path d="m189.174 102h32l-32-32z" fill="#efefd2"/><path d="m221.174 106h-32c-2.211 0-4-1.789-4-4v-32c0-1.617.973-3.078 2.469-3.695 1.5-.621 3.215-.277 4.359.867l32 32c1.145 1.145 1.488 2.863.867 4.359-.617 1.496-2.077 2.469-3.695 2.469zm-28-8h18.344l-18.344-18.344z" fill="#4c241d"/></g><g><path d="m189.174 238h-80c0 6.627 5.373 12 12 12h56c6.628 0 12-5.373 12-12z" fill="#6b4f5b"/><path d="m177.174 254h-56c-8.824 0-16-7.176-16-16 0-2.211 1.789-4 4-4h80c2.211 0 4 1.789 4 4 0 8.824-7.175 16-16 16zm-62.925-12c1.383 2.391 3.969 4 6.926 4h56c2.957 0 5.543-1.609 6.926-4z" fill="#4c241d"/></g><path d="m66.831 59.656c-1.023 0-2.047-.391-2.828-1.172l-11.313-11.312c-1.562-1.562-1.562-4.094 0-5.656s4.094-1.562 5.656 0l11.312 11.312c1.562 1.562 1.562 4.094 0 5.656-.781.782-1.804 1.172-2.827 1.172z" fill="#4c241d"/><path d="m55.518 59.656c-1.023 0-2.047-.391-2.828-1.172-1.562-1.562-1.562-4.094 0-5.656l11.312-11.312c1.562-1.562 4.094-1.562 5.656 0s1.562 4.094 0 5.656l-11.312 11.312c-.781.782-1.804 1.172-2.828 1.172z" fill="#4c241d"/><path d="m157.174 90h-56c-2.211 0-4-1.789-4-4s1.789-4 4-4h56c2.211 0 4 1.789 4 4s-1.789 4-4 4z" fill="#4c241d"/><path d="m129.174 102h-28c-2.211 0-4-1.789-4-4s1.789-4 4-4h28c2.211 0 4 1.789 4 4s-1.789 4-4 4z" fill="#4c241d"/><path d="m173.174 102h-28c-2.211 0-4-1.789-4-4s1.789-4 4-4h28c2.211 0 4 1.789 4 4s-1.789 4-4 4z" fill="#4c241d"/><g><path d="m101.489 166h19.367l-9.753-36z" fill="#edebdc"/><path d="m120.854 170h-19.367c-1.242 0-2.414-.578-3.172-1.562-.758-.988-1.012-2.27-.691-3.469l9.617-36c.465-1.75 2.047-2.965 3.855-2.969h.008c1.805 0 3.387 1.211 3.859 2.953l9.75 36c.328 1.203.074 2.488-.684 3.477s-1.929 1.57-3.175 1.57zm-14.16-8h8.934l-4.496-16.602z" fill="#4c241d"/></g><g><path d="m101.174 167.177v70.823h20v-70.823l-.318-1.177h-19.367z" fill="#ffce56"/><path d="m121.174 242h-20c-2.211 0-4-1.789-4-4v-70.824c0-.348.047-.691.133-1.027l.312-1.176c.469-1.754 2.055-2.973 3.867-2.973h19.367c1.805 0 3.387 1.207 3.859 2.949l.32 1.176c.094.344.141.695.141 1.051v70.824c.001 2.211-1.788 4-3.999 4zm-16-8h12v-64h-12z" fill="#4c241d"/></g><g><path d="m101.174 210h20v12h-20z" fill="#b5a19c" transform="matrix(-1 0 0 -1 222.349 432)"/><path d="m121.174 226h-20c-2.211 0-4-1.789-4-4v-12c0-2.211 1.789-4 4-4h20c2.211 0 4 1.789 4 4v12c0 2.211-1.789 4-4 4zm-16-8h12v-4h-12z" fill="#4c241d"/></g><g><path d="m181.489 166h19.367l-9.753-36z" fill="#edebdc"/><path d="m200.854 170h-19.367c-1.242 0-2.414-.578-3.172-1.562-.758-.988-1.012-2.27-.691-3.469l9.617-36c.465-1.75 2.047-2.965 3.855-2.969h.008c1.805 0 3.387 1.211 3.859 2.953l9.75 36c.328 1.203.074 2.488-.684 3.477s-1.929 1.57-3.175 1.57zm-14.16-8h8.934l-4.496-16.602z" fill="#4c241d"/></g><g><path d="m181.174 167.177v70.823h20v-70.823l-.318-1.177h-19.367z" fill="#e66353"/><path d="m201.174 242h-20c-2.211 0-4-1.789-4-4v-70.824c0-.348.047-.691.133-1.027l.312-1.176c.469-1.754 2.055-2.973 3.867-2.973h19.367c1.805 0 3.387 1.207 3.859 2.949l.32 1.176c.094.344.141.695.141 1.051v70.824c.001 2.211-1.788 4-3.999 4zm-16-8h12v-64h-12z" fill="#4c241d"/></g><g><path d="m137.174 126h28v112h-28z" fill="#e2e2e2"/><path d="m165.174 242h-28c-2.211 0-4-1.789-4-4v-112c0-2.211 1.789-4 4-4h28c2.211 0 4 1.789 4 4v112c0 2.211-1.789 4-4 4zm-24-8h20v-104h-20z" fill="#4c241d"/></g><g fill="#4c241d"><path d="m145.174 178h-8c-2.211 0-4-1.789-4-4s1.789-4 4-4h8c2.211 0 4 1.789 4 4s-1.789 4-4 4z"/><path d="m145.174 162h-8c-2.211 0-4-1.789-4-4s1.789-4 4-4h8c2.211 0 4 1.789 4 4s-1.789 4-4 4z"/><path d="m145.174 146h-8c-2.211 0-4-1.789-4-4s1.789-4 4-4h8c2.211 0 4 1.789 4 4s-1.789 4-4 4z"/><path d="m145.174 194h-8c-2.211 0-4-1.789-4-4s1.789-4 4-4h8c2.211 0 4 1.789 4 4s-1.789 4-4 4z"/><path d="m145.174 210h-8c-2.211 0-4-1.789-4-4s1.789-4 4-4h8c2.211 0 4 1.789 4 4s-1.789 4-4 4z"/><path d="m145.174 226h-8c-2.211 0-4-1.789-4-4s1.789-4 4-4h8c2.211 0 4 1.789 4 4s-1.789 4-4 4z"/></g></g></svg>