<svg id="Layer_5" enable-background="new 0 0 64 64" height="512" viewBox="0 0 64 64" width="512" xmlns="http://www.w3.org/2000/svg"><g><g><path d="m13 5c-4.418 0-8 3.582-8 8s3.582 8 8 8 8-3.582 8-8-3.582-8-8-8zm0 13c-2.761 0-5-2.239-5-5s2.239-5 5-5 5 2.239 5 5-2.239 5-5 5z" fill="#f0bc5e"/></g><g><circle cx="51" cy="13" fill="#f0bc5e" r="8"/></g><g><path d="m23.637 30.787c.214-.487.363-.787.363-.787h5.559c.861 0 1.625.551 1.897 1.368l.544 1.632c1.657 0 3 1.343 3 3v.146c0 1.136-.642 2.175-1.658 2.683l-.342.171 3 3v1.166l.555-.333c3.358-2.015 5.445-5.7 5.445-9.617 0-6.185-5.031-11.216-11.216-11.216h-2.784c-.861-.647-1.913-1-3-1-2.757 0-5 2.243-5 5 0 2.281 1.545 4.19 3.637 4.787z" fill="#f0bc5e"/></g><g><path d="m7.146 24.116 1.576-.788.557 1.672h7.441l.558-1.672 1.576.788 5.262-5.262-.788-1.576 1.672-.557v-7.442l-1.672-.557.788-1.576-5.262-5.262-1.576.788-.557-1.672h-7.442l-.557 1.672-1.576-.788-5.262 5.262.788 1.576-1.672.557v7.441l1.672.557-.788 1.576zm-4.146-13.395 1.428-.476.169-.443c.061-.163.125-.324.197-.482l.196-.434-.673-1.345 3.223-3.224 1.345.672.433-.195c.159-.071.32-.135.483-.197l.444-.168.476-1.429h4.559l.476 1.429.444.168c.163.062.324.125.483.197l.433.195 1.345-.672 3.223 3.223-.674 1.346.196.434c.072.158.136.319.197.482l.169.443 1.428.476v4.559l-1.428.476-.169.443c-.062.163-.125.324-.197.482l-.196.434.673 1.345-3.223 3.223-1.345-.672-.433.195c-.159.071-.32.135-.483.197l-.444.168-.476 1.429h-4.559l-.476-1.429-.444-.168c-.163-.062-.324-.125-.483-.197l-.433-.195-1.344.672-3.223-3.223.673-1.345-.196-.435c-.072-.158-.136-.319-.197-.482l-.169-.443-1.428-.476z"/><path d="m13 19c3.309 0 6-2.691 6-6s-2.691-6-6-6-6 2.691-6 6 2.691 6 6 6zm0-10c2.206 0 4 1.794 4 4s-1.794 4-4 4-4-1.794-4-4 1.794-4 4-4z"/><path d="m51 1c-6.617 0-12 5.383-12 12s5.383 12 12 12 12-5.383 12-12-5.383-12-12-12zm0 22c-.727 0-1.68-1.485-2.314-4h4.629c-.635 2.515-1.588 4-2.315 4zm-2.712-6c-.138-.917-.232-1.921-.269-3h5.963c-.037 1.079-.131 2.083-.269 3zm-7.237-3h4.967c.033 1.019.118 2.027.251 3h-4.428c-.41-.935-.685-1.942-.79-3zm9.949-11c.727 0 1.68 1.485 2.314 4h-4.629c.635-2.515 1.588-4 2.315-4zm2.712 6c.138.917.232 1.921.269 3h-5.963c.037-1.079.131-2.083.269-3zm-7.694 3h-4.967c.106-1.058.38-2.065.79-3h4.428c-.133.973-.218 1.981-.251 3zm9.964 2h4.967c-.106 1.058-.38 2.065-.79 3h-4.428c.133-.973.218-1.981.251-3zm0-2c-.033-1.019-.118-2.027-.251-3h4.428c.41.935.685 1.942.79 3zm2.999-5h-3.606c-.295-1.32-.695-2.507-1.197-3.473 1.934.65 3.599 1.876 4.803 3.473zm-11.159-3.473c-.502.966-.902 2.153-1.197 3.473h-3.606c1.204-1.597 2.869-2.823 4.803-3.473zm-4.803 15.473h3.606c.295 1.32.695 2.507 1.197 3.473-1.934-.65-3.599-1.876-4.803-3.473zm11.159 3.473c.502-.966.902-2.153 1.197-3.473h3.606c-1.204 1.597-2.869 2.823-4.803 3.473z"/><path d="m54 27h-2c-1.654 0-3 1.346-3 3v.382l-.376.188c-1.002.501-1.624 1.508-1.624 2.627 0 .785.306 1.522.86 2.077l1.14 1.14v8.95c0 .141-.058.279-.157.379-.12.12-.294.176-.46.151l-11.383-1.752v-2.556l-2.398-2.399c.878-.748 1.398-1.848 1.398-3.041v-.146c0-1.952-1.404-3.581-3.256-3.931l-.34-1.018c-.409-1.227-1.552-2.051-2.845-2.051h-6.177l-.276.553c-.086.172-2.106 4.248-2.106 7.447v.618l2 1v.764c0 1.379.767 2.619 2 3.236.5.25 1.06.382 1.618.382h1.514l-.72 1.079-11.794 1.815c-.174.026-.34-.031-.461-.151-.1-.1-.157-.238-.157-.379v-8.95l1.14-1.14c.554-.554.86-1.292.86-2.077 0-1.12-.622-2.126-1.624-2.627l-.376-.188v-.382c0-1.654-1.346-3-3-3h-2c-1.654 0-3 1.346-3 3v16.406c0 1.939.755 3.763 2.127 5.136 1.597 1.595 3.797 2.353 6.036 2.07l4.837-.604v9.992h24v-9.992l4.837.604c2.24.284 4.439-.475 6.036-2.071 1.372-1.372 2.127-3.196 2.127-5.135v-16.406c0-1.654-1.346-3-3-3zm-4.481 5.359 1.481-.741v-1.618c0-.551.448-1 1-1h2c.552 0 1 .449 1 1v5h-4.586l-1.14-1.14c-.176-.177-.274-.412-.274-.663 0-.357.198-.678.519-.838zm-21.868 13.707 2.935 2.934-2.005 2.005-1.092-4.914zm4.349 4.348.597.597 1.268 9.989h-3.73l1.268-9.989zm1.414-1.414 2.935-2.935.162.025-1.092 4.914zm-6.796-8c-.25 0-.5-.059-.724-.171-.551-.276-.894-.83-.894-1.447v-2l-1.972-.986c.175-1.998 1.139-4.348 1.608-5.396h4.922c.431 0 .813.275.949.684l.772 2.316h.721c1.103 0 2 .897 2 2v.146c0 .762-.424 1.448-1.105 1.789l-1.583.792 3.688 3.687v2.172l-3 3-2.713-2.713 1.248-1.873h1.465v-2zm-16.618-12h2c.552 0 1 .449 1 1v1.618l1.481.741c.321.16.519.481.519.838 0 .25-.098.486-.274.663l-1.14 1.14h-4.586v-5c0-.551.448-1 1-1zm10 22-5.085.628c-1.627.201-3.217-.344-4.374-1.5-.993-.995-1.541-2.317-1.541-3.722v-9.406h4v8.364c0 .677.264 1.314.743 1.793.568.569 1.384.834 2.179.713l9.586-1.475 1.911 8.6 1.675-1.675-.975 7.68h-6.119v-10zm33.459-.873c-1.157 1.157-2.747 1.703-4.374 1.501l-4.961-.62-2.124-.008v10h-6.119l-.975-7.68 1.675 1.675 1.911-8.6 9.587 1.475c.794.121 1.609-.145 2.178-.713.479-.479.743-1.116.743-1.793v-8.364h4v9.406c0 1.405-.548 2.727-1.541 3.721z"/><circle cx="27" cy="33" r="1"/><path d="m33.707 7.293-1.414 1.414 1.293 1.293h-6.586v2h11.414z"/><path d="m31.707 17.293-1.293-1.293h6.586v-2h-11.414l4.707 4.707z"/></g></g></svg>