<?xml version="1.0" encoding="iso-8859-1"?>
<!-- Generator: Adobe Illustrator 19.0.0, SVG Export Plug-In . SVG Version: 6.00 Build 0)  -->
<svg version="1.1" id="Capa_1" xmlns="http://www.w3.org/2000/svg" xmlns:xlink="http://www.w3.org/1999/xlink" x="0px" y="0px"
	 viewBox="0 0 496 496" style="enable-background:new 0 0 496 496;" xml:space="preserve">
<path style="fill:#FFCB57;" d="M384,168v-48l-28.088-5.616c-2.496-9.104-6.072-17.752-10.648-25.768L361.136,64.8l-33.944-33.944
	l-23.808,15.872c-8.024-4.576-16.664-8.152-25.768-10.648L272,8h-48l-5.616,28.088c-9.104,2.496-17.752,6.072-25.768,10.648
	l-23.808-15.872L134.864,64.8l15.872,23.808c-4.576,8.024-8.152,16.664-10.648,25.768L112,120v48l28.088,5.616
	c2.496,9.104,6.072,17.752,10.648,25.768l-15.872,23.808l33.944,33.944l23.808-15.872c7.32,4.176,15.16,7.512,23.392,9.968v-33.928
	C187.76,204.952,168,176.8,168,144c0-44.184,35.816-80,80-80s80,35.816,80,80c0,32.8-19.76,60.952-48,73.296v33.936l0,0
	c8.232-2.448,16.064-5.792,23.384-9.968l23.808,15.872l33.944-33.944l-15.872-23.808c4.576-8.024,8.152-16.664,10.648-25.768
	L384,168z"/>
<g>
	<polygon style="fill:#E56565;" points="88,160 0,160 0,80 120,80 120,96 16,96 16,144 88,144 	"/>
	<polygon style="fill:#E56565;" points="496,160 408,160 408,144 480,144 480,96 376,96 376,80 496,80 	"/>
</g>
<rect x="304" y="296" style="fill:#FFCB57;" width="160" height="160"/>
<g>
	<rect x="32" y="112" style="fill:#E56565;" width="16" height="16"/>
	<rect x="64" y="112" style="fill:#E56565;" width="16" height="16"/>
</g>
<g>
	<path style="fill:#3F0034;" d="M352.216,84.648l-13.896,7.928c4.248,7.44,7.568,15.488,9.88,23.92l1.304,4.76L376,126.56v34.88
		l-26.496,5.304l-1.304,4.76c-2.312,8.432-5.64,16.488-9.88,23.92l-2.448,4.296l14.976,22.456l-24.664,24.664l-22.464-14.976
		l-4.288,2.448c-3.656,2.088-7.496,3.912-11.424,5.544V222.36c29.312-14.968,48-45.152,48-78.368c0-48.52-39.48-88-88-88
		s-88,39.48-88,88c0,33.208,18.688,63.392,48,78.368v17.496c-3.936-1.632-7.768-3.456-11.424-5.544l-4.288-2.448l-22.464,14.976
		l-29.304-29.304l-11.312,11.312l38.576,38.576l25.248-16.832c4.792,2.464,9.832,4.496,14.968,6.312V401.64l26.72,62.36h26.544
		L288,401.64V256.904c5.136-1.808,10.176-3.84,14.968-6.312l25.248,16.832l43.216-43.216L354.6,198.96
		c3.032-5.888,5.576-12.064,7.616-18.448L392,174.56v-61.12l-29.792-5.96C359.664,99.488,356.312,91.824,352.216,84.648z M256,392
		V208h16v184H256z M272,160h-48v-32c0-4.408,3.592-8,8-8h32c4.408,0,8,3.592,8,8V160z M224,176h48v16h-48V176z M224,208h16v184h-16
		V208z M176,144c0-39.696,32.304-72,72-72s72,32.304,72,72c0,24.288-12.28,46.52-32,59.736V128c0-13.232-10.768-24-24-24h-32
		c-13.232,0-24,10.768-24,24v75.728C188.288,190.52,176,168.288,176,144z M250.728,448h-5.456l-17.144-40h39.736L250.728,448z"/>
	<path style="fill:#3F0034;" d="M143.784,203.352l13.896-7.928c-4.248-7.44-7.568-15.488-9.88-23.92l-1.304-4.76L120,161.44v-34.88
		l26.496-5.304l1.304-4.76c2.312-8.432,5.64-16.488,9.88-23.92l2.448-4.296l-14.976-22.456l24.664-24.664l22.456,14.976l4.296-2.448
		c7.44-4.248,15.488-7.568,23.92-9.88l4.76-1.304L230.56,16h34.88l5.304,26.496l4.76,1.304c8.432,2.312,16.488,5.64,23.92,9.88
		l4.296,2.448l22.456-14.976l29.304,29.304l11.312-11.312l-38.576-38.576L302.968,37.4c-5.888-3.032-12.064-5.576-18.448-7.616
		L278.56,0h-61.12l-5.96,29.792c-6.384,2.032-12.56,4.584-18.448,7.616l-25.248-16.832l-43.216,43.216L141.4,89.04
		c-3.032,5.888-5.576,12.064-7.616,18.448L104,113.44v61.12l29.792,5.96C136.336,188.512,139.688,196.176,143.784,203.352z"/>
	<polygon style="fill:#3F0034;" points="480,176 480,480 16,480 16,176 0,176 0,496 496,496 496,176 	"/>
	<polygon style="fill:#3F0034;" points="464,288 304,288 304,432 320,432 320,304 464,304 	"/>
	<polygon style="fill:#3F0034;" points="304,448 304,464 464,464 464,320 448,320 448,448 	"/>
	<path style="fill:#3F0034;" d="M192,384H32v80h160V384z M176,448H48v-48h128V448z"/>
	<path style="fill:#3F0034;" d="M192,288H32v80h160V288z M176,352H48v-48h128V352z"/>
	<polygon style="fill:#3F0034;" points="136,256 48,256 48,208 120,208 120,192 32,192 32,272 136,272 	"/>
</g>
<g>
</g>
<g>
</g>
<g>
</g>
<g>
</g>
<g>
</g>
<g>
</g>
<g>
</g>
<g>
</g>
<g>
</g>
<g>
</g>
<g>
</g>
<g>
</g>
<g>
</g>
<g>
</g>
<g>
</g>
</svg>
