<svg id="_x33_0" enable-background="new 0 0 64 64" height="512" viewBox="0 0 64 64" width="512" xmlns="http://www.w3.org/2000/svg"><g><g><path d="m29 56h30c1.657 0 3-1.343 3-3v-3h-36v3c0 1.657 1.343 3 3 3z" fill="#f0bc5e"/></g><g><path d="m52 38h7v4h-7z" fill="#f0bc5e"/></g><g><path d="m63.362 25.596-2.979-5.198-2.393 1.409-.007-2.807h-5.967l.024 2.789.008.014-.014.008-2.418-1.413-2.979 5.198 2.435 1.395-2.435 1.414 2.979 5.198 2.399-1.411v2.808h5.967l-.019-2.811 2.418 1.413 2.979-5.198-2.416-1.404zm-8.362 3.404c-1.105 0-2-.895-2-2s.895-2 2-2 2 .895 2 2-.895 2-2 2z" fill="#f0bc5e"/></g><g><path d="m29 29v18h23v-2h-2.446l-4.176-6.683c-.517-.825-1.405-1.317-2.378-1.317s-1.861.492-2.378 1.317l-.084.135-.957-2.871c-.515-1.544-1.954-2.581-3.581-2.581s-3.066 1.037-3.581 2.581l-1.419 4.257v-10.838zm14.683 10.378 3.513 5.622h-8.392l3.513-5.622c.297-.473 1.069-.473 1.366 0zm-9.368-3.164c.243-.726.919-1.214 1.685-1.214s1.442.488 1.685 1.214l1.479 4.438-2.718 4.348h-5.059z"/><path d="m61 32.526v20.474c0 1.103-.897 2-2 2h-28.99c-.003 0-.006-.001-.01-.001h-1.01c-1.098-.005-1.99-.9-1.99-1.999v-24c0-1.103.897-2 2-2h20.055l.017-.01-2.435-1.395.342-.595h-17.979c-2.206 0-4 1.794-4 4v24c0 .004.001.008.001.013-.066-.004-.131-.014-.199-.014-.698 0-1.373.266-1.901.717-.49-5.69-2.892-10.985-6.901-15.126v-1.63c1.021-.095 1.973-.518 2.707-1.253.834-.834 1.293-1.942 1.293-3.121v-1.865l3-1v-.721c0-3.807-1.597-7.101-2.531-8.706 1.527-.87 2.531-2.502 2.531-4.315 0-1.121-.386-2.145-1.013-2.979h2.013v10h2v-12h-1.586l3.586-3.586 3.586 3.586h-1.586v12h2v-10h4.414l-8.414-8.414-7.241 7.241c-.787-.521-1.727-.828-2.739-.828h-8.02c-3.722 0-6.774 2.92-6.988 6.589-1.3 1.44-2.012 3.286-2.012 5.24v.415c0 3.301 1.604 6.416 4.289 8.334l2.711 1.937v5.576c-2.833.478-5 2.942-5 5.91v6c0 1.102.897 2 2 2l-.001 3.94c0 1.596.621 3.096 1.786 4.26 1.162 1.16 2.7 1.8 4.331 1.8l16.887-.001c2.756 0 4.997-2.243 4.997-5 0-.352-.072-.685-.184-.999h4.184v4h-2v2h18v-2h-2v-4h8c2.206 0 4-1.794 4-4v-23.964zm-40.044 22.473h-7.956v-2c1.103 0 2-.897 2-2v-6c0-1.31-.427-2.52-1.142-3.508.456-.233.869-.544 1.226-.913 3.608 3.991 5.664 9.037 5.872 14.421zm-2.956-25.72v3.307c0 .645-.251 1.251-.707 1.707s-1.063.707-1.707.707l-3.586-.001v2l2 .001v1.708c-.389.655-1.042 1.1-1.789 1.231-.661-.421-1.409-.714-2.211-.85v-9.675c0-.533-.207-1.035-.586-1.415l-1.001-1.001c-.267-.266-.413-.621-.413-.999 0-.552.448-1 1-1h1v-2c0-1.103.897-2 2-2h5.722c.269 0 .537-.019.803-.055.695 1.132 2.251 4.005 2.454 7.342zm-11.549.671c-2.161-1.544-3.451-4.051-3.451-6.707v-.415c0-1.557.606-3.021 1.707-4.122l.293-.293v-.414c0-2.757 2.243-5 5-5h8.021c1.643 0 2.979 1.337 2.979 2.979 0 1.331-.896 2.512-2.179 2.87-.356.1-.727.15-1.1.15h-5.721c-2.206 0-4 1.794-4 4v.171c-1.164.413-2 1.525-2 2.829 0 .913.355 1.771 1 2.414l1 1.001v1.642zm-1.451 15.049c0-2.206 1.794-4 4-4s4 1.794 4 4v6l-8 .002zm26 13c0 1.654-1.345 3-2.997 3l-16.887.001c-1.097 0-2.133-.432-2.954-1.253-.75-.749-1.163-1.746-1.163-2.808l.001-3.94h4v2c0 1.103.897 2 2 2h9.414l1.727-1.726c.425-.429 1.229-.298 1.5.244l.741 1.481h2.609c.003.001.006.002.009.002h1.005c.549.003.995.449.995.999zm18 3.001h-10v-4h10z"/><path d="m52 41h7v2h-7z"/><path d="m52 37h7v2h-7z"/><path d="m35 29h4v2h-4z"/><path d="m41 29h4v2h-4z"/><path d="m58 27c0-1.654-1.346-3-3-3s-3 1.346-3 3 1.346 3 3 3 3-1.346 3-3zm-4 0c0-.552.448-1 1-1s1 .448 1 1-.448 1-1 1-1-.448-1-1z"/><path d="m37 23h2v-16h-1.586l3.586-3.586 3.586 3.586h-1.586v16h2v-14h4.414l-8.414-8.414-8.414 8.414h4.414z"/><path d="m50 15v2h2v-4h-1.586l3.586-3.586 3.586 3.586h-1.586v4h2v-2h4.414l-8.414-8.414-8.414 8.414z"/></g></g></svg>